<svg width="160" height="160" style="shape-rendering:crispEdges" version="1.1" viewBox="0 0 42.333 42.333" xmlns="http://www.w3.org/2000/svg">
 <defs>
  <style>.cls-1{fill:#fff;}.cls-2{fill:#335899;}.cls-3{fill:#fefefe;}.cls-4{fill:#335898;}.cls-5{fill:#34599a;}.cls-6{fill:#355999;}.cls-7{fill:#345899;}.cls-8{fill:#fdfdfe;}.cls-9{fill:#91b7d2;}.cls-10{fill:#345898;}.cls-11{fill:#c0c2d4;}.cls-12{fill:#f9fafb;}.cls-13{fill:#abcee1;}.cls-14{fill:#3a5c9b;}.cls-15{fill:#45629d;}.cls-16{fill:#4a669f;}.cls-17{fill:#fcfcfd;}.cls-18{fill:#f6f9f9;}.cls-19{fill:#afcddd;}.cls-20{fill:#fafbfc;}</style>
 </defs>
 <path d="m36.919 4.2231a1.9331 1.9331 0 00-1.7329 1.0391 8.6385 8.6385 0 00-.54362 1.632 24.284 24.284 0 00-.72521 3.3828c-.54369 4.2286-1.7519 8.3361-2.8997 12.383-.06057.30205-.18183.66415-.2421.96619l-.04026-.12101c-.0076.05542-.0346.21469-.01942.12101.0072-.04328.01136-.08284.01818-.12436l-.25991-.78128c-.84579-3.9266-1.691-7.9133-2.5971-11.84a3.2017 3.2017 0 01.11988-2.2361 1.4498 1.4498 0 00-.60415-1.7508 5.8597 5.8597 0 00-2.0534-.96731 1.0269 1.0269 0 00-1.2083.96731c0 .84572.12105 1.6908.1816 2.5365.36245 2.4768.66426 4.9535 1.0267 7.4303.66451 1.1478.48311 2.4169.54363 3.6854.24163 3.9266.42282 7.8528.60414 11.84.06044 1.3894.30175 2.8387.42258 4.2885a5.1952 5.1952 0 00.36204 1.3899 2.1143 2.1143 0 001.873 1.5703 2.0539 2.0539 0 002.3561-1.2083c.24165-.42286.42305-.90538.66467-1.3282.48326-2.8996 1.0267-5.86 1.5704-8.7596.18123-.96654.5441-1.8725.78574-2.7787a3.9266 3.9266 0 010-.84626l3.8054-16.612a11.357 11.357 0 00.30263-1.9929 2.0539 2.0539 0 00-1.5109-1.873 1.9331 1.9331 0 00-.19951-.012394z" style="fill:#345898;shape-rendering:crispEdges;stroke-linejoin:round;stroke-opacity:.66667;stroke-width:5.0271;stroke:#ffffff"/>
 <path class="cls-7" d="m18.024 31.69c-.48328 1.2686-.96654 2.4768-1.5102 3.6849-2.1747 4.5911-4.5911 5.3764-9.1217 3.0204l-.7853-.30205c-2.1747-2.0539-2.96-4.7119-2.8996-7.5511.060567-2.8392.18137-6.3429.36245-9.4842 0-1.2082.12078-2.4768.18133-3.7453.54369-3.3225.72491-6.7054 2.7184-9.7258 1.329-2.1143 2.7788-3.7453 5.316-4.2286h.06059c1.329-1.027 2.658-.90613 3.987.12083 2.5372 1.4498 3.3225 3.1413 2.4163 5.2556-.90613 2.1143-1.6914 2.0539-2.8996.42286h.06055c-.66452-.60409-.30207-1.9935-1.6915-1.9935-1.3894 0-2.1143.7249-2.7184 1.8123-1.2686 2.2351-1.3894 4.8931-2.658 7.1282a.30204.30204 0 00-.06057.42286 109.76 109.76 0 000 16.069c-.12078.1208-.06059.24164.06057.36245a1.6914 1.6914 0 00.78531 1.4498c1.4498 1.1478 2.1143 1.0269 3.0204-.42286a14.498 14.498 0 001.9935-5.3764c.18137-1.0874.06059-1.2686-.96654-1.6914a2.8996 2.8996 0 01-1.0874-.42286 2.4164 2.4164 0 01-.78532-1.0874c-.12078-.66449.36245-1.0874.90614-1.3894l.24163-.1208 6.2825-.84572a1.631 1.631 0 011.631 1.329 1.6914 1.6914 0 01-.84573 1.6914 1.8727 1.8727 0 01-.78529.36246 1.2082 1.2082 0 00-.90613 1.2686c-.06059 1.329-.18133 2.658-.30206 3.987z" style="fill:#345899;shape-rendering:crispEdges;stroke-linejoin:round;stroke-opacity:.66667;stroke-width:5.0271;stroke:#ffffff"/>
 <g>
  <path d="m36.919 4.2231a1.9331 1.9331 0 00-1.7329 1.0391 8.6385 8.6385 0 00-.54362 1.632 24.284 24.284 0 00-.72521 3.3828c-.54369 4.2286-1.7519 8.3361-2.8997 12.383-.06057.30205-.18183.66415-.2421.96619l-.04026-.12101c-.0076.05542-.0346.21469-.01942.12101.0072-.04328.01136-.08284.01818-.12436l-.25991-.78128c-.84579-3.9266-1.691-7.9133-2.5971-11.84a3.2017 3.2017 0 01.11988-2.2361 1.4498 1.4498 0 00-.60415-1.7508 5.8597 5.8597 0 00-2.0534-.96731 1.0269 1.0269 0 00-1.2083.96731c0 .84572.12105 1.6908.1816 2.5365.36245 2.4768.66426 4.9535 1.0267 7.4303.66451 1.1478.48311 2.4169.54363 3.6854.24163 3.9266.42282 7.8528.60414 11.84.06044 1.3894.30175 2.8387.42258 4.2885a5.1952 5.1952 0 00.36204 1.3899 2.1143 2.1143 0 001.873 1.5703 2.0539 2.0539 0 002.3561-1.2083c.24165-.42286.42305-.90538.66467-1.3282.48326-2.8996 1.0267-5.86 1.5704-8.7596.18123-.96654.5441-1.8725.78574-2.7787a3.9266 3.9266 0 010-.84626l3.8054-16.612a11.357 11.357 0 00.30263-1.9929 2.0539 2.0539 0 00-1.5109-1.873 1.9331 1.9331 0 00-.19951-.012394z" style="fill:#345898;shape-rendering:crispEdges"/>
  <path class="cls-7" d="m18.024 31.69c-.48328 1.2686-.96654 2.4768-1.5102 3.6849-2.1747 4.5911-4.5911 5.3764-9.1217 3.0204l-.7853-.30205c-2.1747-2.0539-2.96-4.7119-2.8996-7.5511.060567-2.8392.18137-6.3429.36245-9.4842 0-1.2082.12078-2.4768.18133-3.7453.54369-3.3225.72491-6.7054 2.7184-9.7258 1.329-2.1143 2.7788-3.7453 5.316-4.2286h.06059c1.329-1.027 2.658-.90613 3.987.12083 2.5372 1.4498 3.3225 3.1413 2.4163 5.2556-.90613 2.1143-1.6914 2.0539-2.8996.42286h.06055c-.66452-.60409-.30207-1.9935-1.6915-1.9935-1.3894 0-2.1143.7249-2.7184 1.8123-1.2686 2.2351-1.3894 4.8931-2.658 7.1282a.30204.30204 0 00-.06057.42286 109.76 109.76 0 000 16.069c-.12078.1208-.06059.24164.06057.36245a1.6914 1.6914 0 00.78531 1.4498c1.4498 1.1478 2.1143 1.0269 3.0204-.42286a14.498 14.498 0 001.9935-5.3764c.18137-1.0874.06059-1.2686-.96654-1.6914a2.8996 2.8996 0 01-1.0874-.42286 2.4164 2.4164 0 01-.78532-1.0874c-.12078-.66449.36245-1.0874.90614-1.3894l.24163-.1208 6.2825-.84572a1.631 1.631 0 011.631 1.329 1.6914 1.6914 0 01-.84573 1.6914 1.8727 1.8727 0 01-.78529.36246 1.2082 1.2082 0 00-.90613 1.2686c-.06059 1.329-.18133 2.658-.30206 3.987z" style="fill:#345899;shape-rendering:crispEdges"/>
 </g>
</svg>
